<svg width="16" height="14" viewBox="0 0 16 14" fill="none" xmlns="http://www.w3.org/2000/svg">
<path d="M13.4632 1.78115C13.1215 1.43929 12.7158 1.1681 12.2693 0.983075C11.8227 0.798052 11.3441 0.70282 10.8608 0.70282C10.3774 0.70282 9.8988 0.798052 9.45226 0.983075C9.00572 1.1681 8.60001 1.43929 8.25831 1.78115L7.54916 2.4903L6.84001 1.78115C6.14979 1.09094 5.21366 0.703178 4.23755 0.703178C3.26144 0.703178 2.32531 1.09094 1.6351 1.78115C0.944887 2.47136 0.557129 3.40749 0.557129 4.3836C0.557129 5.35971 0.944887 6.29584 1.6351 6.98606L2.34425 7.69521L7.54916 12.9001L12.7541 7.69521L13.4632 6.98606C13.8051 6.64436 14.0763 6.23865 14.2613 5.79211C14.4463 5.34557 14.5415 4.86696 14.5415 4.3836C14.5415 3.90025 14.4463 3.42163 14.2613 2.9751C14.0763 2.52856 13.8051 2.12285 13.4632 1.78115V1.78115Z" stroke="black" stroke-width="1.00352" stroke-linecap="round" stroke-linejoin="round"/>
</svg>
